<svg version="1.1" id="Layer_1" xmlns="http://www.w3.org/2000/svg" xmlns:xlink="http://www.w3.org/1999/xlink" x="0px" y="0px"
	 width="100%" viewBox="0 0 952 840" enable-background="new 0 0 952 840" xml:space="preserve">
<path fill="#F7F7F7" opacity="1.000000" stroke="none" 
	d="
M463.000000,841.000000 
	C308.666656,841.000000 154.833328,841.000000 1.000000,841.000000 
	C1.000000,561.000000 1.000000,281.000000 1.000000,1.000000 
	C318.333344,1.000000 635.666687,1.000000 953.000000,1.000000 
	C953.000000,281.000000 953.000000,561.000000 953.000000,841.000000 
	C789.833313,841.000000 626.666687,841.000000 463.000000,841.000000 
M557.935303,532.020020 
	C568.339722,533.108643 575.136047,528.423340 579.843445,518.978394 
	C582.337158,518.942688 584.846924,519.077026 587.322083,518.844116 
	C604.938843,517.186829 622.548523,515.454590 640.643921,514.223328 
	C645.476990,521.125854 652.084473,524.178467 658.822815,522.621826 
	C666.116272,520.936951 671.270508,515.346741 672.278503,507.736450 
	C673.204468,500.745728 669.627686,495.708649 665.117249,490.575439 
	C666.959839,483.550995 668.901733,476.550781 670.623413,469.496826 
	C673.832947,456.346344 676.914429,443.164642 680.689026,429.638489 
	C695.031250,426.846100 698.512146,412.990509 693.628296,404.533173 
	C688.901428,396.347473 681.504639,395.096680 672.999451,395.510956 
	C672.340637,394.373444 671.777039,393.166809 671.008789,392.108734 
	C659.840515,376.727203 648.690674,361.331879 637.435974,346.013672 
	C631.981079,338.589172 626.317261,331.318176 620.915466,323.222260 
	C621.267822,322.292389 621.565063,321.337006 621.980957,320.436493 
	C627.294800,308.931732 617.888733,294.759979 603.868164,297.047150 
	C600.833313,297.542206 597.962158,299.040558 594.737610,299.450073 
	C578.151367,288.808838 561.599060,278.114227 544.964722,267.548737 
	C536.580383,262.223389 528.047241,257.132141 519.693237,251.071228 
	C520.238403,240.815018 515.793335,233.726486 507.386108,231.444931 
	C498.742432,229.099213 491.169464,232.976639 485.914337,241.985153 
	C452.893311,242.022354 419.872314,242.059570 386.377747,241.621109 
	C380.243713,229.191055 365.541595,227.066406 357.245270,237.410263 
	C353.808380,241.695328 353.223297,246.647675 353.157501,252.020660 
	C335.138824,262.869202 317.140350,273.751526 299.092499,284.551361 
	C290.718628,289.562286 282.248627,294.412598 273.179688,298.976044 
	C270.215271,298.018005 267.297668,296.461609 264.276794,296.225220 
	C257.788422,295.717407 252.597961,298.680145 249.247437,304.187927 
	C245.194183,310.850983 246.079102,317.491241 250.124237,324.558624 
	C242.435455,338.523041 234.727173,352.476746 227.064285,366.455353 
	C221.324188,376.926392 215.642548,387.429443 209.060059,397.984253 
	C198.028030,396.408630 188.721451,405.708893 189.931732,416.768280 
	C190.791931,424.628845 195.810074,429.648834 205.977417,432.838715 
	C207.330246,437.935303 208.601013,443.055359 210.051041,448.124146 
	C214.724060,464.459473 219.463120,480.775848 223.823547,497.678070 
	C223.245483,498.273041 222.661865,498.862732 222.090256,499.463837 
	C216.969650,504.848694 215.623383,511.489716 218.410431,517.733398 
	C221.487564,524.626892 226.594650,528.058960 234.362717,528.177002 
	C240.766556,528.274353 244.760300,524.559814 249.425705,521.380615 
	C253.386887,522.450439 257.332886,523.580811 261.312134,524.578613 
	C272.790009,527.456787 284.281281,530.281555 295.917694,533.887024 
	C297.074310,542.218750 302.340240,546.721924 310.006317,549.848328 
	C313.498840,569.859314 316.948761,589.877930 320.504639,609.877625 
	C321.946472,617.987000 323.619232,626.055359 324.819916,634.714111 
	C323.804871,635.570374 322.772003,636.406433 321.777771,637.286255 
	C316.181671,642.238525 314.834503,650.809021 318.539398,657.809814 
	C321.977173,664.305969 329.544983,667.836670 336.584167,666.228394 
	C347.981781,663.624329 352.475800,654.763000 349.493317,641.686096 
	C352.907257,638.060486 356.270416,634.385437 359.744019,630.817993 
	C373.565765,616.622864 387.367737,602.407593 401.301636,588.323120 
	C405.003937,584.580811 409.150513,581.278015 413.781250,578.053528 
	C426.051880,583.848022 436.528107,580.676086 446.239349,572.267700 
	C451.991913,575.244141 457.701050,578.308472 463.506897,581.177063 
	C473.033508,585.883972 482.622864,590.463806 492.223511,595.924011 
	C492.133575,603.546021 494.993713,609.639526 501.938507,613.155518 
	C508.138641,616.294617 514.196960,615.437988 519.788025,611.340271 
	C525.541687,607.123413 529.299011,597.448669 523.362915,586.690857 
	C532.446594,572.372742 541.576355,558.083496 550.582825,543.716919 
	C552.932678,539.968628 554.898499,535.979553 557.935303,532.020020 
z"/>
<path fill="#E28380" opacity="1.000000" stroke="none" 
	d="
M445.830750,571.639709 
	C436.528107,580.676086 426.051880,583.848022 413.223511,577.672668 
	C409.826935,574.828186 406.988098,572.364563 404.073669,569.546875 
	C402.650024,564.798889 401.301971,560.405090 399.993378,555.597412 
	C400.969971,551.453308 401.907104,547.722961 403.011353,543.688904 
	C410.301392,532.078125 419.326447,528.285583 433.291626,531.036011 
	C436.662231,532.833130 439.717102,534.457825 442.928772,536.388062 
	C450.056000,543.779846 452.204468,552.285828 450.332275,562.203796 
	C448.711029,565.536804 447.270874,568.588257 445.830750,571.639709 
z"/>
<path fill="#CBD0D4" opacity="1.000000" stroke="none" 
	d="
M386.851257,242.096771 
	C419.872314,242.059570 452.893311,242.022354 486.283081,242.369598 
	C486.744659,246.484482 486.837494,250.214920 486.468445,253.946930 
	C452.933502,253.888672 419.860443,253.828857 386.827728,253.376801 
	C386.862457,249.355270 386.856873,245.726028 386.851257,242.096771 
z"/>
<path fill="#CBD0D4" opacity="1.000000" stroke="none" 
	d="
M273.822205,299.335754 
	C282.248627,294.412598 290.718628,289.562286 299.092499,284.551361 
	C317.140350,273.751526 335.138824,262.869202 353.680664,252.272552 
	C355.849884,255.318771 357.495941,258.113068 358.968445,261.216919 
	C344.232239,270.495605 329.708435,279.528625 315.094574,288.413574 
	C303.604034,295.399567 292.002441,302.202850 280.283447,308.806000 
	C278.018524,305.461700 275.920380,302.398712 273.822205,299.335754 
z"/>
<path fill="#CBD0D4" opacity="1.000000" stroke="none" 
	d="
M404.149261,569.900940 
	C406.988098,572.364563 409.826935,574.828186 412.879425,577.532654 
	C409.150513,581.278015 405.003937,584.580811 401.301636,588.323120 
	C387.367737,602.407593 373.565765,616.622864 359.744019,630.817993 
	C356.270416,634.385437 352.907257,638.060486 348.939941,641.628418 
	C345.919769,639.068542 343.452972,636.566467 341.130829,633.758484 
	C343.465485,631.192383 345.654907,628.931458 347.845581,626.671875 
	C355.336670,618.945251 362.750183,611.141418 370.338013,603.510986 
	C381.543304,592.242859 392.872711,581.098206 404.149261,569.900940 
z"/>
<path fill="#CBD0D4" opacity="1.000000" stroke="none" 
	d="
M620.747986,323.977692 
	C626.317261,331.318176 631.981079,338.589172 637.435974,346.013672 
	C648.690674,361.331879 659.840515,376.727203 671.008789,392.108734 
	C671.777039,393.166809 672.340637,394.373444 672.819275,396.115479 
	C669.944580,398.520172 667.250061,400.320374 664.210083,401.973267 
	C652.879578,386.822296 641.843872,371.855408 630.928833,356.800995 
	C624.517212,347.957977 618.297424,338.975861 612.183472,329.779663 
	C615.166321,327.661224 617.957153,325.819458 620.747986,323.977692 
z"/>
<path fill="#CBD0D4" opacity="1.000000" stroke="none" 
	d="
M519.581421,251.935028 
	C528.047241,257.132141 536.580383,262.223389 544.964722,267.548737 
	C561.599060,278.114227 578.151367,288.808838 594.838745,300.104431 
	C593.240967,303.550262 591.541931,306.341705 589.506104,309.057495 
	C588.275269,308.552887 587.327576,308.208832 586.495239,307.682343 
	C569.854370,297.155762 553.195679,286.656830 536.610413,276.043152 
	C528.973022,271.155609 521.484741,266.035065 514.076172,260.713745 
	C516.009521,257.583221 517.795471,254.759125 519.581421,251.935028 
z"/>
<path fill="#CBD0D4" opacity="1.000000" stroke="none" 
	d="
M325.186890,634.142334 
	C323.619232,626.055359 321.946472,617.987000 320.504639,609.877625 
	C316.948761,589.877930 313.498840,569.859314 310.430237,549.404541 
	C314.224030,548.283020 317.593872,547.605347 321.122620,547.297485 
	C324.193115,564.044861 327.142578,580.415894 330.003815,596.802307 
	C332.100708,608.811401 334.081879,620.840759 335.669434,632.898926 
	C331.878479,633.338623 328.532684,633.740479 325.186890,634.142334 
z"/>
<path fill="#CBD0D4" opacity="1.000000" stroke="none" 
	d="
M209.934906,397.918274 
	C215.642548,387.429443 221.324188,376.926392 227.064285,366.455353 
	C234.727173,352.476746 242.435455,338.523041 250.481827,324.384247 
	C253.923340,326.156403 257.007263,328.102936 260.032532,330.404724 
	C252.302628,344.690826 244.605957,358.607666 236.968384,372.556946 
	C231.247162,383.006165 225.602020,393.497070 219.635468,403.806976 
	C216.210266,401.735748 213.072586,399.826996 209.934906,397.918274 
z"/>
<path fill="#EFC165" opacity="1.000000" stroke="none" 
	d="
M664.746277,491.324585 
	C669.627686,495.708649 673.204468,500.745728 672.278503,507.736450 
	C671.270508,515.346741 666.116272,520.936951 658.822815,522.621826 
	C652.084473,524.178467 645.476990,521.125854 640.316895,513.628418 
	C639.601746,509.335693 639.213684,505.637787 638.939880,501.607849 
	C639.767212,499.548309 640.480225,497.820770 641.467712,495.916565 
	C644.517334,493.656006 647.292542,491.572083 650.455811,489.432983 
	C651.873230,489.204041 652.902527,489.030334 654.354004,488.904175 
	C658.099487,489.742706 661.422913,490.533661 664.746277,491.324585 
z"/>
<path fill="#EFC165" opacity="1.000000" stroke="none" 
	d="
M519.637329,251.503128 
	C517.795471,254.759125 516.009521,257.583221 513.752563,260.834473 
	C507.986053,265.099548 502.279938,265.987640 495.888611,263.423981 
	C492.745056,260.113739 489.837708,257.029572 486.930359,253.945374 
	C486.837494,250.214920 486.744659,246.484482 486.741028,242.361877 
	C491.169464,232.976639 498.742432,229.099213 507.386108,231.444931 
	C515.793335,233.726486 520.238403,240.815018 519.637329,251.503128 
z"/>
<path fill="#90C4C4" opacity="1.000000" stroke="none" 
	d="
M325.003418,634.428223 
	C328.532684,633.740479 331.878479,633.338623 336.021484,632.964233 
	C338.207855,633.349243 339.597015,633.706787 340.986176,634.064331 
	C343.452972,636.566467 345.919769,639.068542 348.635376,641.772827 
	C352.475800,654.763000 347.981781,663.624329 336.584167,666.228394 
	C329.544983,667.836670 321.977173,664.305969 318.539398,657.809814 
	C314.834503,650.809021 316.181671,642.238525 321.777771,637.286255 
	C322.772003,636.406433 323.804871,635.570374 325.003418,634.428223 
z"/>
<path fill="#E28380" opacity="1.000000" stroke="none" 
	d="
M260.091187,330.049438 
	C257.007263,328.102936 253.923340,326.156403 250.579529,324.018616 
	C246.079102,317.491241 245.194183,310.850983 249.247437,304.187927 
	C252.597961,298.680145 257.788422,295.717407 264.276794,296.225220 
	C267.297668,296.461609 270.215271,298.018005 273.500946,299.155884 
	C275.920380,302.398712 278.018524,305.461700 280.321838,309.203278 
	C280.652130,310.936584 280.777252,311.991272 280.845245,313.413116 
	C279.502289,317.157593 278.216461,320.534912 276.640442,324.086487 
	C272.000671,329.195923 266.308533,330.360291 260.091187,330.049438 
z"/>
<path fill="#EFC165" opacity="1.000000" stroke="none" 
	d="
M359.141998,260.907379 
	C357.495941,258.113068 355.849884,255.318771 354.027466,252.204803 
	C353.223297,246.647675 353.808380,241.695328 357.245270,237.410263 
	C365.541595,227.066406 380.243713,229.191055 386.614502,241.858948 
	C386.856873,245.726028 386.862457,249.355270 386.594971,253.626099 
	C383.471313,257.377319 380.620667,260.487000 377.377197,263.694397 
	C373.677521,264.124695 370.370667,264.457245 366.801666,264.573792 
	C364.073669,263.207642 361.607849,262.057526 359.141998,260.907379 
z"/>
<path fill="#EFC165" opacity="1.000000" stroke="none" 
	d="
M522.778442,587.094238 
	C529.299011,597.448669 525.541687,607.123413 519.788025,611.340271 
	C514.196960,615.437988 508.138641,616.294617 501.938507,613.155518 
	C494.993713,609.639526 492.133575,603.546021 492.434540,595.254517 
	C494.446625,591.434387 496.247681,588.283813 498.360840,584.962524 
	C503.133453,581.062378 508.396057,580.695618 514.094299,581.415894 
	C517.145691,583.472656 519.962097,585.283447 522.778442,587.094238 
z"/>
<path fill="#E28380" opacity="1.000000" stroke="none" 
	d="
M664.555481,402.120544 
	C667.250061,400.320374 669.944580,398.520172 672.859253,396.480225 
	C681.504639,395.096680 688.901428,396.347473 693.628296,404.533173 
	C698.512146,412.990509 695.031250,426.846100 679.969727,429.768188 
	C675.868530,428.893707 672.486633,427.889496 668.904541,426.619720 
	C666.552795,423.513977 664.401367,420.673828 662.195923,417.399017 
	C662.424011,413.327728 662.706116,409.691101 663.170044,405.749329 
	C663.753052,404.336334 664.154236,403.228424 664.555481,402.120544 
z"/>
<path fill="#EFC165" opacity="1.000000" stroke="none" 
	d="
M209.497498,397.951233 
	C213.072586,399.826996 216.210266,401.735748 219.790192,404.129181 
	C221.437927,407.438904 222.643433,410.263947 223.857513,413.488251 
	C222.939941,417.259186 222.013794,420.630859 220.882416,424.252045 
	C219.384079,425.928680 218.090973,427.355804 216.448059,428.883911 
	C212.712280,430.001465 209.326279,431.018005 205.940277,432.034546 
	C195.810074,429.648834 190.791931,424.628845 189.931732,416.768280 
	C188.721451,405.708893 198.028030,396.408630 209.497498,397.951233 
z"/>
<path fill="#EFC165" opacity="1.000000" stroke="none" 
	d="
M320.963715,546.927673 
	C317.593872,547.605347 314.224030,548.283020 310.425232,548.979614 
	C302.340240,546.721924 297.074310,542.218750 295.910004,533.081238 
	C296.903015,528.861084 297.903687,525.446716 299.121368,521.783691 
	C300.610168,520.048706 301.881989,518.562317 303.533569,517.056030 
	C307.604279,516.342712 311.295258,515.649414 315.311218,515.052917 
	C316.727814,515.400940 317.819427,515.652161 319.207336,516.087830 
	C322.283142,518.837280 325.062683,521.402222 327.957092,524.304565 
	C328.703369,526.415466 329.334778,528.188904 329.939331,530.377380 
	C329.157990,534.120056 328.403534,537.447693 327.394958,540.978027 
	C325.081787,543.096375 323.022736,545.012024 320.963715,546.927673 
z"/>
<path fill="#90C4C4" opacity="1.000000" stroke="none" 
	d="
M248.941925,520.774780 
	C244.760300,524.559814 240.766556,528.274353 234.362717,528.177002 
	C226.594650,528.058960 221.487564,524.626892 218.410431,517.733398 
	C215.623383,511.489716 216.969650,504.848694 222.090256,499.463837 
	C222.661865,498.862732 223.245483,498.273041 224.350372,497.310303 
	C228.200272,495.999084 231.523361,495.055634 235.117050,494.376709 
	C244.471985,495.931274 248.998337,500.343506 251.055069,510.359009 
	C250.335358,514.112854 249.638641,517.443787 248.941925,520.774780 
z"/>
<path fill="#90C4C4" opacity="1.000000" stroke="none" 
	d="
M578.915100,518.909668 
	C575.136047,528.423340 568.339722,533.108643 557.298096,531.768738 
	C553.842957,529.995728 551.025024,528.474060 548.165588,526.572388 
	C545.085876,520.805603 544.435059,515.024963 545.544739,508.821594 
	C547.872498,506.043335 549.942688,503.439819 552.374390,500.806763 
	C559.297058,496.945587 565.787720,497.261261 571.840271,501.668518 
	C574.189026,503.378845 575.903381,505.960510 577.926270,508.555847 
	C578.268921,512.280823 578.592041,515.595276 578.915100,518.909668 
z"/>
<path fill="#90C4C4" opacity="1.000000" stroke="none" 
	d="
M589.842896,309.133118 
	C591.541931,306.341705 593.240967,303.550262 594.977783,300.417786 
	C597.962158,299.040558 600.833313,297.542206 603.868164,297.047150 
	C617.888733,294.759979 627.294800,308.931732 621.980957,320.436493 
	C621.565063,321.337006 621.267822,322.292389 620.831726,323.599976 
	C617.957153,325.819458 615.166321,327.661224 611.727905,329.758942 
	C603.413330,331.209503 597.062073,328.861145 591.973877,322.567932 
	C591.199768,318.740570 590.488647,315.287598 589.829773,311.498291 
	C589.868958,310.485687 589.855896,309.809387 589.842896,309.133118 
z"/>
<path fill="#CBD0D4" opacity="1.000000" stroke="none" 
	d="
M234.846466,494.112183 
	C231.523361,495.055634 228.200272,495.999084 224.526947,497.021057 
	C219.463120,480.775848 214.724060,464.459473 210.051041,448.124146 
	C208.601013,443.055359 207.330246,437.935303 205.958847,432.436646 
	C209.326279,431.018005 212.712280,430.001465 216.519226,429.292480 
	C217.193253,430.558075 217.435547,431.519043 217.700989,432.473602 
	C223.414581,453.020233 229.130783,473.566132 234.846466,494.112183 
z"/>
<path fill="#CBD0D4" opacity="1.000000" stroke="none" 
	d="
M548.207031,526.952332 
	C551.025024,528.474060 553.842957,529.995728 556.850830,531.809204 
	C554.898499,535.979553 552.932678,539.968628 550.582825,543.716919 
	C541.576355,558.083496 532.446594,572.372742 523.070679,586.892578 
	C519.962097,585.283447 517.145691,583.472656 514.161987,581.046143 
	C521.613525,568.188538 529.164124,555.903442 536.881409,543.723938 
	C540.490479,538.028137 544.421814,532.536499 548.207031,526.952332 
z"/>
<path fill="#CBD0D4" opacity="1.000000" stroke="none" 
	d="
M669.104797,426.885254 
	C672.486633,427.889496 675.868530,428.893707 679.649780,429.946930 
	C676.914429,443.164642 673.832947,456.346344 670.623413,469.496826 
	C668.901733,476.550781 666.959839,483.550995 664.931763,490.950012 
	C661.422913,490.533661 658.099487,489.742706 654.384521,488.517029 
	C659.030212,467.683258 664.067505,447.284271 669.104797,426.885254 
z"/>
<path fill="#CBD0D4" opacity="1.000000" stroke="none" 
	d="
M579.379272,518.944031 
	C578.592041,515.595276 578.268921,512.280823 578.307922,508.361694 
	C582.449280,507.436310 586.232727,507.158661 590.007080,506.787384 
	C606.281372,505.186493 622.552979,503.558197 638.825562,501.939880 
	C639.213684,505.637787 639.601746,509.335693 640.075134,513.389893 
	C622.548523,515.454590 604.938843,517.186829 587.322083,518.844116 
	C584.846924,519.077026 582.337158,518.942688 579.379272,518.944031 
z"/>
<path fill="#CBD0D4" opacity="1.000000" stroke="none" 
	d="
M498.048737,585.133179 
	C496.247681,588.283813 494.446625,591.434387 492.415680,594.841064 
	C482.622864,590.463806 473.033508,585.883972 463.506897,581.177063 
	C457.701050,578.308472 451.991913,575.244141 446.035034,571.953735 
	C447.270874,568.588257 448.711029,565.536804 450.735229,562.247803 
	C453.393951,563.024475 455.473328,564.029053 457.542511,565.054321 
	C471.045807,571.744812 484.546906,578.439697 498.048737,585.133179 
z"/>
<path fill="#CBD0D4" opacity="1.000000" stroke="none" 
	d="
M249.183807,521.077698 
	C249.638641,517.443787 250.335358,514.112854 251.443802,510.396057 
	C267.538483,514.017639 283.221405,518.024963 298.904358,522.032349 
	C297.903687,525.446716 296.903015,528.861084 295.834808,532.701355 
	C284.281281,530.281555 272.790009,527.456787 261.312134,524.578613 
	C257.332886,523.580811 253.386887,522.450439 249.183807,521.077698 
z"/>
<path fill="#F7F7F7" opacity="1.000000" stroke="none" 
	d="
M498.360840,584.962524 
	C484.546906,578.439697 471.045807,571.744812 457.542511,565.054321 
	C455.473328,564.029053 453.393951,563.024475 450.916290,561.966309 
	C452.204468,552.285828 450.056000,543.779846 443.227997,536.190491 
	C444.626831,533.557678 445.927185,531.452515 447.132294,529.294128 
	C454.444794,516.197327 461.735504,503.088440 469.425964,490.005981 
	C484.700623,494.706787 498.116455,492.051392 510.343018,482.144867 
	C522.186096,491.202332 533.736633,500.099365 545.287170,508.996368 
	C544.435059,515.024963 545.085876,520.805603 548.165527,526.572388 
	C544.421814,532.536499 540.490479,538.028137 536.881409,543.723938 
	C529.164124,555.903442 521.613525,568.188538 513.926941,580.800110 
	C508.396057,580.695618 503.133453,581.062378 498.360840,584.962524 
z"/>
<path fill="#F7F7F7" opacity="1.000000" stroke="none" 
	d="
M329.966156,529.962402 
	C329.334778,528.188904 328.703369,526.415466 328.036407,523.964172 
	C334.889832,514.462158 341.798126,505.652985 348.661438,496.808868 
	C353.804413,490.181610 358.889557,483.509521 364.403381,476.875916 
	C383.660339,481.909332 395.143860,476.282410 401.569031,459.082642 
	C416.302124,459.070953 430.576935,459.081818 444.932159,459.472595 
	C446.763702,469.613861 451.770477,477.483032 459.003357,484.374756 
	C450.289001,500.104370 441.632477,515.484070 432.975952,530.863708 
	C419.326447,528.285583 410.301392,532.078125 402.592529,543.702637 
	C393.558350,542.469360 385.092560,541.007935 376.665741,539.348633 
	C361.087128,536.281128 345.531403,533.097595 329.966156,529.962402 
z"/>
<path fill="#F7F7F7" opacity="1.000000" stroke="none" 
	d="
M321.122620,547.297485 
	C323.022736,545.012024 325.081787,543.096375 327.816650,541.082642 
	C352.312988,545.993469 376.133423,551.002380 399.953888,556.011230 
	C401.301971,560.405090 402.650024,564.798889 404.073669,569.546875 
	C392.872711,581.098206 381.543304,592.242859 370.338013,603.510986 
	C362.750183,611.141418 355.336670,618.945251 347.845581,626.671875 
	C345.654907,628.931458 343.465485,631.192383 341.130829,633.758484 
	C339.597015,633.706787 338.207855,633.349243 336.466675,632.926392 
	C334.081879,620.840759 332.100708,608.811401 330.003815,596.802307 
	C327.142578,580.415894 324.193115,564.044861 321.122620,547.297485 
z"/>
<path fill="#CBD0D4" opacity="1.000000" stroke="none" 
	d="
M399.993378,555.597412 
	C376.133423,551.002380 352.312988,545.993469 328.070801,540.880005 
	C328.403534,537.447693 329.157990,534.120056 329.939331,530.377380 
	C345.531403,533.097595 361.087128,536.281128 376.665741,539.348633 
	C385.092560,541.007935 393.558350,542.469360 402.425385,544.006348 
	C401.907104,547.722961 400.969971,551.453308 399.993378,555.597412 
z"/>
<path fill="#CBD0D4" opacity="1.000000" stroke="none" 
	d="
M433.291626,531.036011 
	C441.632477,515.484070 450.289001,500.104370 459.310181,484.508514 
	C462.794434,486.189423 465.913940,488.086487 469.033478,489.983582 
	C461.735504,503.088440 454.444794,516.197327 447.132294,529.294128 
	C445.927185,531.452515 444.626831,533.557678 443.071228,535.885010 
	C439.717102,534.457825 436.662231,532.833130 433.291626,531.036011 
z"/>
<path fill="#F7F7F7" opacity="1.000000" stroke="none" 
	d="
M377.770050,263.596680 
	C380.620667,260.487000 383.471313,257.377319 386.554688,254.018356 
	C419.860443,253.828857 452.933502,253.888672 486.468445,253.946930 
	C489.837708,257.029572 492.745056,260.113739 495.849792,263.924255 
	C495.698456,279.442383 495.349731,294.234100 494.679749,309.206146 
	C479.217590,313.465820 470.889679,323.437958 468.417786,338.892639 
	C464.526825,339.165344 461.073792,339.318176 457.640198,339.664093 
	C443.422302,341.096680 429.210266,342.587585 414.830261,343.737640 
	C409.320953,329.253662 399.174500,321.287903 384.048950,319.296295 
	C381.939240,300.450134 379.854645,282.023407 377.770050,263.596680 
z"/>
<path fill="#F7F7F7" opacity="1.000000" stroke="none" 
	d="
M358.968445,261.216919 
	C361.607849,262.057526 364.073669,263.207642 366.770386,265.047638 
	C367.455841,271.662598 367.831024,277.595093 368.381439,283.511292 
	C369.542358,295.989441 370.794952,308.459015 371.666809,321.049011 
	C362.649353,324.069427 356.354614,329.916443 350.940491,337.218140 
	C327.336395,329.085114 304.119385,321.065552 280.902374,313.045990 
	C280.777252,311.991272 280.652130,310.936584 280.488617,309.484589 
	C292.002441,302.202850 303.604034,295.399567 315.094574,288.413574 
	C329.708435,279.528625 344.232239,270.495605 358.968445,261.216919 
z"/>
<path fill="#F7F7F7" opacity="1.000000" stroke="none" 
	d="
M592.036865,322.942322 
	C597.062073,328.861145 603.413330,331.209503 611.535889,330.035583 
	C618.297424,338.975861 624.517212,347.957977 630.928833,356.800995 
	C641.843872,371.855408 652.879578,386.822296 664.210083,401.973267 
	C664.154236,403.228424 663.753052,404.336334 662.703003,405.751221 
	C642.361084,405.723541 622.668030,405.388885 602.800049,404.750092 
	C600.355835,401.271729 598.605042,397.483368 595.715576,395.043365 
	C588.336853,388.812408 580.175964,390.017029 571.935913,393.673645 
	C563.158875,385.913208 554.621521,378.357208 545.901550,371.018127 
	C540.115784,366.148499 534.068848,361.589203 528.174316,356.538635 
	C529.537537,350.173859 530.865234,344.161469 532.590454,338.108521 
	C534.764282,337.695862 536.559509,337.396027 538.314148,336.940369 
	C556.225525,332.288849 574.130249,327.612061 592.036865,322.942322 
z"/>
<path fill="#F7F7F7" opacity="1.000000" stroke="none" 
	d="
M495.001038,309.025848 
	C495.349731,294.234100 495.698456,279.442383 496.085968,264.150330 
	C502.279938,265.987640 507.986053,265.099548 513.605164,261.140900 
	C521.484741,266.035065 528.973022,271.155609 536.610413,276.043152 
	C553.195679,286.656830 569.854370,297.155762 586.495239,307.682343 
	C587.327576,308.208832 588.275269,308.552887 589.506104,309.057495 
	C589.855896,309.809387 589.868958,310.485687 589.456726,311.561096 
	C569.312378,317.041107 549.593323,322.122009 529.619141,326.976746 
	C521.606018,313.676147 510.381805,307.321808 495.001038,309.025848 
z"/>
<path fill="#F7F7F7" opacity="1.000000" stroke="none" 
	d="
M223.848938,413.088989 
	C222.643433,410.263947 221.437927,407.438904 220.077713,404.291656 
	C225.602020,393.497070 231.247162,383.006165 236.968384,372.556946 
	C244.605957,358.607666 252.302628,344.690826 260.032532,330.404724 
	C266.308533,330.360291 272.000671,329.195923 277.017334,324.156586 
	C288.752045,327.970764 299.787354,331.983337 310.895844,335.781921 
	C323.089203,339.951477 335.349976,343.923767 347.514221,348.443420 
	C346.211609,357.495422 348.545990,365.357178 352.010376,373.051025 
	C342.724609,381.029449 333.736053,388.827911 324.847290,396.738556 
	C318.812622,402.109222 312.918060,407.637329 306.626282,412.976501 
	C291.049438,404.365021 278.839844,407.450684 267.861572,422.362061 
	C264.337524,421.701599 261.236084,421.218384 258.172180,420.560150 
	C246.724442,418.100800 235.288986,415.584167 223.848938,413.088989 
z"/>
<path fill="#F7F7F7" opacity="1.000000" stroke="none" 
	d="
M638.939880,501.607849 
	C622.552979,503.558197 606.281372,505.186493 590.007080,506.787384 
	C586.232727,507.158661 582.449280,507.436310 578.288330,507.951141 
	C575.903381,505.960510 574.189026,503.378845 571.840271,501.668518 
	C565.787720,497.261261 559.297058,496.945587 552.216797,500.524658 
	C540.195068,491.156769 528.692444,482.041443 517.275391,472.593689 
	C522.540344,463.049561 522.881042,453.219086 521.461792,443.077209 
	C529.603394,439.827942 537.356995,436.581177 545.143921,433.416595 
	C553.073120,430.194153 561.035278,427.052643 569.276001,424.055359 
	C575.616455,430.551392 582.997559,431.043457 590.997681,429.461121 
	C595.431580,435.637787 599.766479,441.503662 604.170532,447.317169 
	C616.496094,463.587463 628.850342,479.836060 641.193237,496.093231 
	C640.480225,497.820770 639.767212,499.548309 638.939880,501.607849 
z"/>
<path fill="#F7F7F7" opacity="1.000000" stroke="none" 
	d="
M668.904541,426.619690 
	C664.067505,447.284271 659.030212,467.683258 653.962402,488.469452 
	C652.902527,489.030334 651.873230,489.204041 650.334717,489.073608 
	C642.448792,478.999939 635.106262,469.204407 627.686707,459.467499 
	C618.372925,447.244659 608.995972,435.069946 599.757080,422.546997 
	C600.827393,420.406708 601.786926,418.593842 603.228027,416.835236 
	C623.223145,417.204163 642.736511,417.518890 662.249878,417.833618 
	C664.401367,420.673828 666.552795,423.513977 668.904541,426.619690 
z"/>
<path fill="#CBD0D4" opacity="1.000000" stroke="none" 
	d="
M599.646301,422.874451 
	C608.995972,435.069946 618.372925,447.244659 627.686707,459.467499 
	C635.106262,469.204407 642.448792,478.999939 649.946655,489.128784 
	C647.292542,491.572083 644.517334,493.656006 641.467712,495.916565 
	C628.850342,479.836060 616.496094,463.587463 604.170532,447.317169 
	C599.766479,441.503662 595.431580,435.637787 591.296875,429.277222 
	C594.234497,426.797272 596.940430,424.835876 599.646301,422.874451 
z"/>
<path fill="#CBD0D4" opacity="1.000000" stroke="none" 
	d="
M347.581390,347.981995 
	C335.349976,343.923767 323.089203,339.951477 310.895844,335.781921 
	C299.787354,331.983337 288.752045,327.970764 277.307556,323.982361 
	C278.216461,320.534912 279.502289,317.157593 280.845245,313.413116 
	C304.119385,321.065552 327.336395,329.085114 350.843811,337.560913 
	C349.949951,341.338776 348.765656,344.660400 347.581390,347.981995 
z"/>
<path fill="#CBD0D4" opacity="1.000000" stroke="none" 
	d="
M372.009949,320.932129 
	C370.794952,308.459015 369.542358,295.989441 368.381439,283.511292 
	C367.831024,277.595093 367.455841,271.662598 367.032532,265.263641 
	C370.370667,264.457245 373.677521,264.124695 377.377197,263.694397 
	C379.854645,282.023407 381.939240,300.450134 383.597565,319.365753 
	C379.450836,320.213806 375.730408,320.572968 372.009949,320.932129 
z"/>
<path fill="#CBD0D4" opacity="1.000000" stroke="none" 
	d="
M662.195923,417.398987 
	C642.736511,417.518890 623.223145,417.204163 603.288574,416.398071 
	C602.903198,412.289154 602.939087,408.671692 602.974976,405.054199 
	C622.668030,405.388885 642.361084,405.723541 662.521240,406.056335 
	C662.706116,409.691101 662.424011,413.327728 662.195923,417.398987 
z"/>
<path fill="#F7F7F7" opacity="1.000000" stroke="none" 
	d="
M299.121338,521.783691 
	C283.221405,518.024963 267.538483,514.017639 251.466797,509.973206 
	C248.998337,500.343506 244.471985,495.931274 235.117065,494.376709 
	C229.130783,473.566132 223.414581,453.020233 217.700989,432.473602 
	C217.435547,431.519043 217.193253,430.558075 216.869019,429.191528 
	C218.090973,427.355804 219.384079,425.928680 221.265472,424.306549 
	C236.479324,427.432709 251.104858,430.753845 265.804993,434.490845 
	C266.791260,449.282928 275.711456,458.202606 291.083923,460.434601 
	C292.674103,467.420898 294.317841,474.001099 295.715302,480.633209 
	C298.271637,492.764618 300.682343,504.926697 303.153778,517.075989 
	C301.881989,518.562317 300.610168,520.048706 299.121338,521.783691 
z"/>
<path fill="#CBD0D4" opacity="1.000000" stroke="none" 
	d="
M265.730408,434.075012 
	C251.104858,430.753845 236.479324,427.432709 221.470718,424.057037 
	C222.013794,420.630859 222.939941,417.259186 223.857513,413.488251 
	C235.288986,415.584167 246.724442,418.100800 258.172180,420.560150 
	C261.236084,421.218384 264.337524,421.701599 267.766296,422.706024 
	C267.317352,426.789612 266.523865,430.432312 265.730408,434.075012 
z"/>
<path fill="#F7F7F7" opacity="1.000000" stroke="none" 
	d="
M318.911072,515.903381 
	C317.819427,515.652161 316.727814,515.400940 315.259277,514.665466 
	C310.811432,495.343872 306.740479,476.506531 302.915283,457.437103 
	C307.041534,453.386902 310.921997,449.568787 315.236023,445.817078 
	C317.299408,446.161774 318.941925,446.381073 320.557098,446.727844 
	C330.600525,448.883911 340.637787,451.068604 350.742432,453.656464 
	C352.417206,459.298523 354.026611,464.527893 355.389099,470.037537 
	C347.765198,479.399841 340.329987,488.435364 333.031891,497.580322 
	C328.222809,503.606476 323.611145,509.790222 318.911072,515.903381 
z"/>
<path fill="#CBD0D4" opacity="1.000000" stroke="none" 
	d="
M319.207336,516.087830 
	C323.611145,509.790222 328.222809,503.606476 333.031891,497.580322 
	C340.329987,488.435364 347.765198,479.399841 355.647705,470.175018 
	C358.769012,472.307281 361.384735,474.582336 364.000488,476.857422 
	C358.889557,483.509521 353.804413,490.181610 348.661438,496.808868 
	C341.798126,505.652985 334.889832,514.462158 327.921539,523.626770 
	C325.062683,521.402222 322.283142,518.837280 319.207336,516.087830 
z"/>
<path fill="#CBD0D4" opacity="1.000000" stroke="none" 
	d="
M302.669556,457.669189 
	C306.740479,476.506531 310.811432,495.343872 314.934326,514.568665 
	C311.295258,515.649414 307.604279,516.342712 303.533569,517.056030 
	C300.682343,504.926697 298.271637,492.764618 295.715302,480.633209 
	C294.317841,474.001099 292.674103,467.420898 291.495575,460.394836 
	C295.456329,459.204651 299.062927,458.436920 302.669556,457.669189 
z"/>
<path fill="#CBD0D4" opacity="1.000000" stroke="none" 
	d="
M517.189819,472.926147 
	C528.692444,482.041443 540.195068,491.156769 551.855286,500.554169 
	C549.942688,503.439819 547.872498,506.043335 545.544739,508.821594 
	C533.736633,500.099365 522.186096,491.202332 510.489624,481.852234 
	C512.625732,478.574860 514.907776,475.750488 517.189819,472.926147 
z"/>
<path fill="#CBD0D4" opacity="1.000000" stroke="none" 
	d="
M529.874268,327.202942 
	C549.593323,322.122009 569.312378,317.041107 589.404480,311.897400 
	C590.488647,315.287598 591.199768,318.740570 591.973877,322.567932 
	C574.130249,327.612061 556.225525,332.288849 538.314148,336.940369 
	C536.559509,337.396027 534.764282,337.695862 532.529419,337.684387 
	C531.338745,333.934845 530.606506,330.568878 529.874268,327.202942 
z"/>
<path fill="#EFC165" opacity="1.000000" stroke="none" 
	d="
M517.275391,472.593689 
	C514.907776,475.750488 512.625732,478.574860 510.197083,481.691833 
	C498.116455,492.051392 484.700623,494.706787 469.425964,490.005981 
	C465.913940,488.086487 462.794434,486.189423 459.368073,484.158569 
	C451.770477,477.483032 446.763702,469.613861 444.971191,459.005493 
	C444.908691,454.751434 444.887543,451.344391 444.950928,447.559235 
	C447.373810,441.493591 449.712097,435.806122 452.342560,429.953247 
	C455.134827,427.275238 457.634918,424.762604 460.450409,422.095886 
	C472.052399,414.587158 484.095215,412.776764 496.893768,417.213928 
	C505.388062,420.158844 511.491211,426.185577 516.863464,433.533447 
	C518.334045,436.958771 519.711182,440.037292 521.088379,443.115784 
	C522.881042,453.219086 522.540344,463.049561 517.275391,472.593689 
z"/>
<path fill="#90C4C4" opacity="1.000000" stroke="none" 
	d="
M364.403381,476.875916 
	C361.384735,474.582336 358.769012,472.307281 355.894653,469.894714 
	C354.026611,464.527893 352.417206,459.298523 350.840363,453.218414 
	C351.605713,448.946503 352.338470,445.525391 353.318909,441.877502 
	C356.032166,438.793884 358.068726,435.351959 361.034515,433.177307 
	C377.315491,421.239349 397.301971,431.526581 401.103882,448.327209 
	C401.117737,452.189270 401.114288,455.647217 401.110840,459.105194 
	C395.143860,476.282410 383.660339,481.909332 364.403381,476.875916 
z"/>
<path fill="#CBD0D4" opacity="1.000000" stroke="none" 
	d="
M401.569061,459.082642 
	C401.114288,455.647217 401.117737,452.189270 401.563843,448.345703 
	C416.293152,447.952545 430.579773,447.944946 444.866394,447.937378 
	C444.887543,451.344391 444.908691,454.751434 444.890808,458.625549 
	C430.576935,459.081818 416.302124,459.070953 401.569061,459.082642 
z"/>
<path fill="#E28380" opacity="1.000000" stroke="none" 
	d="
M371.666809,321.049011 
	C375.730408,320.572968 379.450836,320.213806 383.622681,319.785187 
	C399.174500,321.287903 409.320953,329.253662 414.838318,344.149658 
	C415.433868,348.617554 415.855499,352.354034 416.196472,356.503784 
	C414.075165,362.913361 412.034546,368.909607 409.688599,375.049927 
	C407.232086,377.458130 405.080933,379.722198 402.599121,382.094116 
	C391.516296,389.007385 380.212799,391.058472 368.218323,385.851227 
	C365.056946,384.478729 362.132843,382.559784 358.957611,380.590698 
	C356.660339,377.832703 354.505188,375.375763 352.350067,372.918854 
	C348.545990,365.357178 346.211609,357.495422 347.514221,348.443420 
	C348.765656,344.660400 349.949951,341.338776 351.230927,337.674377 
	C356.354614,329.916443 362.649353,324.069427 371.666809,321.049011 
z"/>
<path fill="#97C6C6" opacity="1.000000" stroke="none" 
	d="
M529.619141,326.976746 
	C530.606506,330.568878 531.338745,333.934845 532.131958,337.724915 
	C530.865234,344.161469 529.537537,350.173859 527.984375,356.833099 
	C525.799683,360.200012 523.840576,362.920105 521.506531,365.681335 
	C519.645935,366.408783 518.119690,367.019470 516.681519,367.793945 
	C508.256439,372.330658 499.594879,373.446320 490.372406,370.293335 
	C480.170166,366.805389 474.153076,359.358093 470.048096,349.473816 
	C469.633728,345.664398 469.249176,342.262970 468.864624,338.861572 
	C470.889679,323.437958 479.217590,313.465820 494.679749,309.206146 
	C510.381805,307.321808 521.606018,313.676147 529.619141,326.976746 
z"/>
<path fill="#CBD0D4" opacity="1.000000" stroke="none" 
	d="
M468.417786,338.892639 
	C469.249176,342.262970 469.633728,345.664398 469.615540,349.517578 
	C451.567596,352.009766 433.922363,354.050140 416.277161,356.090485 
	C415.855499,352.354034 415.433868,348.617554 415.004150,344.469116 
	C429.210266,342.587585 443.422302,341.096680 457.640198,339.664093 
	C461.073792,339.318176 464.526825,339.165344 468.417786,338.892639 
z"/>
<path fill="#EFC165" opacity="1.000000" stroke="none" 
	d="
M602.800110,404.750092 
	C602.939087,408.671692 602.903198,412.289154 602.806885,416.343811 
	C601.786926,418.593842 600.827393,420.406708 599.757080,422.546997 
	C596.940430,424.835876 594.234497,426.797272 591.229492,428.942596 
	C582.997559,431.043457 575.616455,430.551392 569.126648,423.758423 
	C567.081177,419.840210 565.478149,416.398590 563.920654,412.523560 
	C564.422852,408.778534 564.879578,405.466888 565.581177,401.939362 
	C567.916748,399.139099 570.007385,396.554688 572.098022,393.970276 
	C580.175964,390.017029 588.336853,388.812408 595.715576,395.043365 
	C598.605042,397.483368 600.355835,401.271729 602.800110,404.750092 
z"/>
<path fill="#CBD0D4" opacity="1.000000" stroke="none" 
	d="
M571.935913,393.673645 
	C570.007385,396.554688 567.916748,399.139099 565.244629,401.786835 
	C550.402588,389.780182 536.142029,377.710205 521.881531,365.640228 
	C523.840576,362.920105 525.799683,360.200012 527.948792,357.185486 
	C534.068848,361.589203 540.115784,366.148499 545.901550,371.018127 
	C554.621521,378.357208 563.158875,385.913208 571.935913,393.673645 
z"/>
<path fill="#EFC165" opacity="1.000000" stroke="none" 
	d="
M302.915283,457.437073 
	C299.062927,458.436920 295.456329,459.204651 291.438049,460.012146 
	C275.711456,458.202606 266.791260,449.282928 265.804993,434.490845 
	C266.523865,430.432312 267.317352,426.789612 268.206085,422.802948 
	C278.839844,407.450684 291.049438,404.365021 306.793213,413.258301 
	C309.733368,416.497681 312.171906,419.336761 314.740936,422.540466 
	C315.686737,426.588501 316.502014,430.271881 317.239349,434.382446 
	C316.375122,438.456665 315.588806,442.103668 314.802490,445.750671 
	C310.921997,449.568787 307.041534,453.386902 302.915283,457.437073 
z"/>
<path fill="#CBD0D4" opacity="1.000000" stroke="none" 
	d="
M314.610413,422.175842 
	C312.171906,419.336761 309.733368,416.497681 307.127838,413.376831 
	C312.918060,407.637329 318.812622,402.109222 324.847290,396.738556 
	C333.736053,388.827911 342.724609,381.029449 352.010376,373.051025 
	C354.505188,375.375763 356.660339,377.832703 358.891724,380.935028 
	C352.481934,387.479614 345.980011,393.361420 339.513824,399.282257 
	C331.197662,406.897034 322.910217,414.543182 314.610413,422.175842 
z"/>
<path fill="#CBD0D4" opacity="1.000000" stroke="none" 
	d="
M563.875061,412.956970 
	C565.478149,416.398590 567.081177,419.840210 568.833618,423.578735 
	C561.035278,427.052643 553.073120,430.194153 545.143921,433.416595 
	C537.356995,436.581177 529.603394,439.827942 521.461792,443.077209 
	C519.711182,440.037292 518.334045,436.958771 517.200500,433.357300 
	C532.921082,426.208588 548.398071,419.582794 563.875061,412.956970 
z"/>
<path fill="#CBD0D4" opacity="1.000000" stroke="none" 
	d="
M315.236023,445.817108 
	C315.588806,442.103668 316.375122,438.456665 317.599457,434.461609 
	C329.715424,436.777161 341.393311,439.440704 353.071228,442.104248 
	C352.338470,445.525391 351.605713,448.946503 350.775024,452.805695 
	C340.637787,451.068604 330.600525,448.883911 320.557098,446.727844 
	C318.941925,446.381073 317.299408,446.161774 315.236023,445.817108 
z"/>
<path fill="#F7F7F7" opacity="1.000000" stroke="none" 
	d="
M563.920654,412.523590 
	C548.398071,419.582794 532.921082,426.208588 517.107056,433.010498 
	C511.491211,426.185577 505.388062,420.158844 496.893768,417.213928 
	C484.095215,412.776764 472.052399,414.587158 460.149597,421.907166 
	C444.599884,407.335632 429.682709,392.781830 414.705658,378.289886 
	C413.330841,376.959564 411.573578,376.024475 409.993958,374.905853 
	C412.034546,368.909607 414.075165,362.913361 416.196472,356.503784 
	C433.922363,354.050140 451.567596,352.009766 469.645355,349.925598 
	C474.153076,359.358093 480.170166,366.805389 490.372406,370.293335 
	C499.594879,373.446320 508.256439,372.330658 516.681519,367.793945 
	C518.119690,367.019470 519.645935,366.408783 521.506531,365.681335 
	C536.142029,377.710205 550.402588,389.780182 564.999634,402.002686 
	C564.879578,405.466888 564.422852,408.778534 563.920654,412.523590 
z"/>
<path fill="#F7F7F7" opacity="1.000000" stroke="none" 
	d="
M353.318939,441.877502 
	C341.393311,439.440704 329.715424,436.777161 317.677399,434.034424 
	C316.502014,430.271881 315.686737,426.588501 314.740906,422.540466 
	C322.910217,414.543182 331.197662,406.897034 339.513824,399.282257 
	C345.980011,393.361420 352.481934,387.479614 359.033875,381.236084 
	C362.132843,382.559784 365.056946,384.478729 368.218323,385.851227 
	C380.212799,391.058472 391.516296,389.007385 402.745178,382.399353 
	C419.498108,398.437347 435.774261,414.278015 452.050415,430.118652 
	C449.712097,435.806122 447.373810,441.493591 444.950928,447.559204 
	C430.579773,447.944946 416.293152,447.952545 401.546570,447.941589 
	C397.301971,431.526581 377.315491,421.239349 361.034515,433.177307 
	C358.068726,435.351959 356.032166,438.793884 353.318939,441.877502 
z"/>
<path fill="#CBD0D4" opacity="1.000000" stroke="none" 
	d="
M452.342590,429.953247 
	C435.774261,414.278015 419.498108,398.437347 403.075867,382.291504 
	C405.080933,379.722198 407.232086,377.458130 409.688599,375.049927 
	C411.573578,376.024475 413.330841,376.959564 414.705658,378.289886 
	C429.682709,392.781830 444.599884,407.335632 459.834167,422.061249 
	C457.634918,424.762604 455.134827,427.275238 452.342590,429.953247 
z"/>
</svg>